<?xml version="1.0" standalone="no"?>
<svg xmlns:xlink="http://www.w3.org/1999/xlink" id="wave" style="transform:rotate(0deg); transition: 0.3s" viewBox="0 0 1440 290" version="1.1" xmlns="http://www.w3.org/2000/svg"><defs><linearGradient id="sw-gradient-0" x1="0" x2="0" y1="1" y2="0"><stop stop-color="rgba(142, 217, 255, 1)" offset="0%"/><stop stop-color="rgba(91, 140, 165, 1)" offset="100%"/></linearGradient></defs><path style="transform:translate(0, 0px); opacity:1" fill="url(#sw-gradient-0)" d="M0,174L60,159.5C120,145,240,116,360,130.5C480,145,600,203,720,222.3C840,242,960,222,1080,203C1200,184,1320,164,1440,154.7C1560,145,1680,145,1800,120.8C1920,97,2040,48,2160,24.2C2280,0,2400,0,2520,33.8C2640,68,2760,135,2880,178.8C3000,222,3120,242,3240,227.2C3360,213,3480,164,3600,145C3720,126,3840,135,3960,125.7C4080,116,4200,87,4320,62.8C4440,39,4560,19,4680,48.3C4800,77,4920,155,5040,183.7C5160,213,5280,193,5400,164.3C5520,135,5640,97,5760,111.2C5880,126,6000,193,6120,212.7C6240,232,6360,203,6480,164.3C6600,126,6720,77,6840,72.5C6960,68,7080,106,7200,130.5C7320,155,7440,164,7560,174C7680,184,7800,193,7920,169.2C8040,145,8160,87,8280,96.7C8400,106,8520,184,8580,222.3L8640,261L8640,290L8580,290C8520,290,8400,290,8280,290C8160,290,8040,290,7920,290C7800,290,7680,290,7560,290C7440,290,7320,290,7200,290C7080,290,6960,290,6840,290C6720,290,6600,290,6480,290C6360,290,6240,290,6120,290C6000,290,5880,290,5760,290C5640,290,5520,290,5400,290C5280,290,5160,290,5040,290C4920,290,4800,290,4680,290C4560,290,4440,290,4320,290C4200,290,4080,290,3960,290C3840,290,3720,290,3600,290C3480,290,3360,290,3240,290C3120,290,3000,290,2880,290C2760,290,2640,290,2520,290C2400,290,2280,290,2160,290C2040,290,1920,290,1800,290C1680,290,1560,290,1440,290C1320,290,1200,290,1080,290C960,290,840,290,720,290C600,290,480,290,360,290C240,290,120,290,60,290L0,290Z"/><defs><linearGradient id="sw-gradient-1" x1="0" x2="0" y1="1" y2="0"><stop stop-color="rgba(113, 173, 204, 1)" offset="0%"/><stop stop-color="rgba(70, 108, 127, 1)" offset="100%"/></linearGradient></defs><path style="transform:translate(0, 50px); opacity:0.9" fill="url(#sw-gradient-1)" d="M0,58L60,72.5C120,87,240,116,360,140.2C480,164,600,184,720,169.2C840,155,960,106,1080,72.5C1200,39,1320,19,1440,14.5C1560,10,1680,19,1800,48.3C1920,77,2040,126,2160,149.8C2280,174,2400,174,2520,159.5C2640,145,2760,116,2880,101.5C3000,87,3120,87,3240,106.3C3360,126,3480,164,3600,174C3720,184,3840,164,3960,154.7C4080,145,4200,145,4320,164.3C4440,184,4560,222,4680,227.2C4800,232,4920,203,5040,174C5160,145,5280,116,5400,130.5C5520,145,5640,203,5760,227.2C5880,251,6000,242,6120,236.8C6240,232,6360,232,6480,193.3C6600,155,6720,77,6840,38.7C6960,0,7080,0,7200,43.5C7320,87,7440,174,7560,207.8C7680,242,7800,222,7920,207.8C8040,193,8160,184,8280,164.3C8400,145,8520,116,8580,101.5L8640,87L8640,290L8580,290C8520,290,8400,290,8280,290C8160,290,8040,290,7920,290C7800,290,7680,290,7560,290C7440,290,7320,290,7200,290C7080,290,6960,290,6840,290C6720,290,6600,290,6480,290C6360,290,6240,290,6120,290C6000,290,5880,290,5760,290C5640,290,5520,290,5400,290C5280,290,5160,290,5040,290C4920,290,4800,290,4680,290C4560,290,4440,290,4320,290C4200,290,4080,290,3960,290C3840,290,3720,290,3600,290C3480,290,3360,290,3240,290C3120,290,3000,290,2880,290C2760,290,2640,290,2520,290C2400,290,2280,290,2160,290C2040,290,1920,290,1800,290C1680,290,1560,290,1440,290C1320,290,1200,290,1080,290C960,290,840,290,720,290C600,290,480,290,360,290C240,290,120,290,60,290L0,290Z"/></svg>