<?xml version="1.0" standalone="no"?>
<!DOCTYPE svg PUBLIC "-//W3C//DTD SVG 20010904//EN"
 "http://www.w3.org/TR/2001/REC-SVG-20010904/DTD/svg10.dtd">
<svg version="1.0" xmlns="http://www.w3.org/2000/svg"
 width="987.000000pt" height="987.000000pt" viewBox="0 0 987.000000 987.000000"
 preserveAspectRatio="xMidYMid meet">
<metadata>
Created by potrace 1.14, written by Peter Selinger 2001-2017
</metadata>
<g transform="translate(0.000000,987.000000) scale(0.100000,-0.100000)"
fill="#000000" stroke="none">
<path d="M5434 9665 c-70 -16 -140 -59 -169 -103 -49 -76 -57 -195 -20 -304
18 -51 73 -114 113 -129 38 -15 101 -18 140 -7 19 5 43 11 54 13 38 8 109 47
140 78 66 66 83 155 53 271 -39 150 -156 218 -311 181z"/>
<path d="M5157 8909 c-122 -29 -192 -109 -204 -235 -12 -125 43 -251 129 -295
116 -59 346 32 394 156 24 65 16 176 -20 249 -56 114 -160 158 -299 125z"/>
<path d="M6028 8825 c-2 -2 -22 -5 -46 -9 -97 -13 -189 -90 -213 -178 -14 -54
-9 -153 11 -215 43 -132 140 -183 280 -146 109 28 178 75 219 148 25 46 21
186 -8 250 -40 89 -104 139 -193 147 -26 3 -49 4 -50 3z"/>
<path d="M6032 8101 c-70 -24 -121 -67 -152 -127 -50 -97 -24 -278 51 -355 57
-58 127 -71 231 -44 190 49 270 187 213 368 -46 148 -185 212 -343 158z"/>
<path d="M5250 8005 c-163 -43 -233 -158 -204 -332 34 -205 175 -270 378 -175
114 54 158 127 151 252 -11 190 -152 301 -325 255z"/>
<path d="M6395 7450 c-72 -23 -128 -67 -157 -123 -25 -51 -34 -154 -19 -217 7
-25 13 -50 14 -57 9 -36 65 -105 102 -123 117 -56 331 17 390 133 62 119 0
322 -115 382 -49 25 -144 27 -215 5z"/>
<path d="M5614 7294 c-75 -15 -111 -33 -152 -75 -47 -48 -66 -95 -69 -174 -8
-186 99 -320 240 -300 128 18 220 67 264 142 57 97 34 265 -48 349 -57 58
-138 79 -235 58z"/>
<path d="M6867 6880 c-147 -46 -205 -135 -194 -294 8 -103 43 -177 105 -220
38 -27 51 -30 110 -30 117 2 225 53 285 135 29 39 31 49 32 123 0 97 -15 151
-58 208 -61 82 -170 112 -280 78z"/>
<path d="M6044 6639 c-113 -43 -172 -129 -172 -251 1 -178 84 -288 217 -288
59 0 154 29 208 63 106 67 139 184 90 330 -23 71 -86 138 -146 156 -55 16
-138 12 -197 -10z"/>
<path d="M5314 6434 c-102 -41 -155 -117 -160 -229 -7 -166 85 -305 204 -305
133 0 273 75 314 167 42 94 17 238 -54 319 -68 77 -187 96 -304 48z"/>
<path d="M6815 6069 c-72 -13 -88 -18 -126 -43 -80 -53 -118 -135 -113 -244 5
-116 53 -210 126 -248 79 -41 245 -6 335 70 76 64 98 190 53 309 -45 121 -148
179 -275 156z"/>
<path d="M4699 5943 c-39 -30 -82 -85 -93 -120 -12 -38 22 -28 38 12 8 19 36
57 62 85 51 55 49 64 -7 23z"/>
<path d="M6140 5875 c-81 -17 -124 -38 -167 -84 -47 -48 -65 -102 -62 -184 3
-73 14 -107 51 -163 49 -75 132 -95 258 -63 199 51 273 172 214 351 -18 55
-80 122 -127 137 -53 17 -109 19 -167 6z"/>
<path d="M4515 5755 c-98 -22 -140 -40 -141 -61 -2 -83 132 -311 271 -458 l64
-69 37 39 c176 186 187 429 24 518 -72 39 -164 50 -255 31z m159 -84 c25 -27
17 -72 -15 -90 -24 -13 -29 -13 -53 2 -29 19 -36 67 -13 92 17 20 61 18 81 -4z"/>
<path d="M3925 5750 c-84 -21 -150 -76 -161 -134 -19 -103 85 -186 237 -188
l57 -1 -18 -42 c-52 -122 -41 -245 28 -318 62 -65 146 -87 295 -78 51 3 47 16
-31 97 -95 97 -167 197 -198 272 -22 54 -31 92 -18 79 3 -3 16 -2 28 3 21 7
24 3 41 -42 30 -85 181 -269 278 -339 37 -27 39 -27 75 -12 20 8 56 29 80 45
l44 30 -69 72 c-143 146 -231 271 -278 393 l-28 72 -26 -18 -25 -19 -62 44
c-102 73 -183 100 -249 84z"/>
<path d="M5465 5559 c-96 -23 -141 -85 -139 -188 4 -163 102 -230 247 -169 67
27 86 44 108 92 35 78 1 205 -66 246 -40 25 -96 32 -150 19z"/>
<path d="M6800 5268 c-68 -22 -123 -66 -153 -121 -18 -35 -22 -58 -22 -138 1
-87 4 -102 33 -160 21 -44 43 -71 68 -88 106 -68 314 -13 397 105 55 78 47
220 -18 320 -63 97 -172 127 -305 82z"/>
<path d="M3886 5194 c-75 -50 -75 -60 -7 -83 29 -9 111 -16 111 -8 0 1 -6 22
-14 47 -7 25 -12 55 -10 68 2 12 1 22 -4 22 -4 0 -38 -21 -76 -46z"/>
<path d="M2437 5204 c-1 -1 -87 -5 -192 -9 -268 -9 -494 -22 -534 -30 -9 -1
-55 -6 -103 -9 -47 -4 -94 -8 -105 -10 -10 -2 -48 -7 -85 -10 -37 -4 -77 -9
-90 -11 -13 -2 -45 -6 -73 -10 -71 -9 -111 -15 -180 -26 -85 -14 -102 -17
-170 -30 -33 -6 -71 -13 -85 -15 -144 -25 -200 -37 -200 -44 0 -5 11 -21 23
-37 13 -15 55 -75 94 -133 203 -302 316 -512 496 -916 99 -221 147 -318 227
-460 322 -568 668 -935 1125 -1196 240 -136 644 -291 865 -331 14 -3 59 -12
100 -20 80 -16 104 -20 315 -42 53 -6 389 -6 440 0 22 2 65 7 95 10 72 7 176
22 220 30 14 3 36 7 50 10 108 20 130 33 130 76 0 30 -32 96 -74 153 -29 39
-94 175 -136 286 -81 216 -201 378 -352 473 -29 18 -93 51 -143 71 -155 65
-212 93 -287 142 -154 99 -287 228 -420 408 -125 169 -136 184 -198 250 -247
265 -614 478 -1076 626 -185 59 -185 59 -36 55 497 -15 944 -150 1271 -382 75
-54 176 -138 269 -224 179 -165 381 -297 727 -474 336 -172 422 -230 600 -409
115 -115 187 -205 273 -339 27 -43 52 -75 55 -70 4 7 14 67 23 136 2 15 6 39
9 55 28 150 23 508 -9 682 -4 19 -9 46 -11 60 -41 230 -147 490 -280 691 -195
292 -438 497 -805 675 -268 130 -575 241 -775 279 -264 49 -447 66 -763 69
-122 1 -224 1 -225 0z"/>
<path d="M5380 5078 c-144 -29 -222 -116 -224 -253 0 -38 3 -88 7 -109 10 -53
53 -129 86 -154 68 -50 174 -49 288 3 116 53 165 139 152 267 -20 182 -141
279 -309 246z"/>
<path d="M6155 5036 c-85 -27 -134 -66 -171 -136 -15 -27 -19 -56 -19 -131 1
-85 4 -101 30 -154 17 -33 47 -72 68 -90 36 -27 45 -30 115 -30 105 0 190 32
254 96 56 56 72 106 65 199 -16 196 -164 302 -342 246z"/>
<path d="M6360 4323 c-63 -21 -126 -76 -152 -131 -47 -102 -18 -281 59 -355
61 -60 140 -69 258 -30 160 53 226 166 188 327 -21 93 -62 149 -135 187 -46
24 -153 25 -218 2z"/>
<path d="M9169 4316 c-2 -2 -35 -7 -74 -10 -91 -9 -142 -15 -240 -27 -44 -6
-96 -13 -115 -15 -145 -17 -465 -86 -870 -188 -421 -106 -757 -271 -1045 -513
-241 -203 -377 -366 -468 -563 -94 -202 -122 -334 -122 -575 0 -205 21 -333
85 -523 41 -123 106 -261 113 -242 4 8 18 51 32 95 36 109 104 249 172 353 43
67 108 138 279 307 226 223 314 324 393 450 111 176 162 244 246 330 110 111
130 128 242 203 103 69 175 109 275 153 67 30 283 109 295 109 4 0 -30 -24
-74 -53 -104 -70 -146 -100 -158 -113 -5 -5 -42 -36 -81 -67 -226 -181 -392
-409 -489 -672 -94 -255 -200 -412 -368 -544 -101 -79 -160 -147 -205 -236
-27 -55 -60 -195 -66 -285 -7 -96 -14 -131 -49 -263 -24 -87 -11 -108 63 -101
124 12 159 16 234 30 651 123 1244 557 1529 1121 15 28 44 96 66 150 33 83 56
153 131 398 12 41 57 268 65 330 7 59 15 110 21 145 2 14 7 45 10 70 16 133
89 432 149 610 25 74 45 136 45 138 0 3 -16 2 -21 -2z"/>
<path d="M5653 4219 c-182 -34 -264 -175 -217 -375 19 -82 80 -153 150 -173
83 -24 245 26 312 97 92 97 83 287 -19 391 -57 57 -133 77 -226 60z"/>
<path d="M5716 3489 c-3 -17 -20 -110 -36 -207 -17 -97 -33 -188 -36 -202 -3
-14 -9 -47 -14 -75 -4 -27 -18 -97 -30 -155 -12 -58 -24 -116 -26 -130 -102
-521 -297 -1101 -503 -1495 -65 -123 -197 -354 -210 -365 -3 -3 -24 -32 -45
-65 -52 -80 -143 -199 -238 -312 l-77 -92 92 -90 c185 -180 241 -231 247 -224
34 39 267 378 317 461 263 437 478 1053 568 1627 9 55 18 111 20 125 2 14 7
52 11 85 3 33 8 68 10 77 1 10 6 59 10 110 3 51 8 101 9 110 6 32 17 303 19
465 2 162 2 163 -33 273 -20 60 -39 110 -42 110 -4 0 -9 -14 -13 -31z"/>
</g>
</svg>
